<?xml version="1.0" encoding="UTF-8" standalone="no"?>
<svg width="18px" height="15px" viewBox="0 0 18 15" version="1.1" xmlns="http://www.w3.org/2000/svg" xmlns:xlink="http://www.w3.org/1999/xlink" xmlns:sketch="http://www.bohemiancoding.com/sketch/ns">
    <!-- Generator: Sketch 3.4 (15575) - http://www.bohemiancoding.com/sketch -->
    <title>ico-idioma</title>
    <desc>Created with Sketch.</desc>
    <defs>
        <path id="path-1" d="M0,0 L17.124,0 L17.124,15 L0,15 L0,0 Z"></path>
    </defs>
    <g id="Page-1" stroke="none" stroke-width="1" fill="none" fill-rule="evenodd" sketch:type="MSPage">
        <g id="ico-idioma" sketch:type="MSLayerGroup">
            <mask id="mask-2" sketch:name="Clip 2" fill="white">
                <use xlink:href="#path-1"></use>
            </mask>
            <g id="Clip-2"></g>
            <path d="M10.9302,6.376 C10.9302,5.873 11.3382,5.465 11.8412,5.465 C12.3442,5.465 12.7522,5.873 12.7522,6.376 C12.7522,6.879 12.3442,7.287 11.8412,7.287 C11.3382,7.287 10.9302,6.879 10.9302,6.376 L10.9302,6.376 Z M7.6512,6.376 C7.6512,5.873 8.0592,5.465 8.5622,5.465 C9.0652,5.465 9.4732,5.873 9.4732,6.376 C9.4732,6.879 9.0652,7.287 8.5622,7.287 C8.0592,7.287 7.6512,6.879 7.6512,6.376 L7.6512,6.376 Z M4.3722,6.376 C4.3722,5.873 4.7802,5.465 5.2832,5.465 C5.7852,5.465 6.1942,5.873 6.1942,6.376 C6.1942,6.879 5.7852,7.287 5.2832,7.287 C4.7802,7.287 4.3722,6.879 4.3722,6.376 L4.3722,6.376 Z M0.0002,10.566 C0.0002,11.371 0.6522,12.023 1.4572,12.023 L3.6432,12.023 L3.6432,14.271 C3.6432,14.676 3.9712,15 4.3722,15 C4.5762,15 4.7622,14.916 4.8932,14.781 L7.6512,12.023 L15.6662,12.023 C16.4722,12.023 17.1242,11.371 17.1242,10.566 L17.1242,1.457 C17.1242,0.652 16.4722,0 15.6662,0 L1.4572,0 C0.6522,0 0.0002,0.652 0.0002,1.457 L0.0002,10.566 Z" id="Fill-1" fill="#6B6B6B" sketch:type="MSShapeGroup" mask="url(#mask-2)"></path>
        </g>
    </g>
</svg>