<?xml version="1.0" encoding="UTF-8" standalone="no"?>
<svg width="30px" height="30px" viewBox="0 0 30 30" version="1.1" xmlns="http://www.w3.org/2000/svg" xmlns:xlink="http://www.w3.org/1999/xlink" xmlns:sketch="http://www.bohemiancoding.com/sketch/ns">
    <!-- Generator: Sketch 3.4 (15575) - http://www.bohemiancoding.com/sketch -->
    <title>ico-search</title>
    <desc>Created with Sketch.</desc>
    <defs></defs>
    <g id="Page-1" stroke="none" stroke-width="1" fill="none" fill-rule="evenodd" sketch:type="MSPage">
        <g id="ico-search" sketch:type="MSLayerGroup" fill="#003636">
            <path d="M10.4246,11.8158 C10.4246,7.4228 13.9896,3.8568 18.3836,3.8568 C22.7766,3.8568 26.3416,7.4228 26.3416,11.8158 C26.3416,16.2088 22.7766,19.7748 18.3836,19.7748 C13.9896,19.7748 10.4246,16.2088 10.4246,11.8158 L10.4246,11.8158 Z M1.6126,25.0078 C0.6256,25.9948 0.6256,27.5988 1.6126,28.5858 C2.5996,29.5728 4.2046,29.5728 5.1846,28.5858 L12.4996,21.2768 C14.2066,22.3408 16.2186,22.9578 18.3836,22.9578 C24.5396,22.9578 29.5256,17.9728 29.5256,11.8158 C29.5256,5.6588 24.5396,0.6738 18.3836,0.6738 C12.2266,0.6738 7.2416,5.6588 7.2416,11.8158 C7.2416,13.9738 7.8586,15.9928 8.9216,17.6988 L1.6126,25.0078 Z M19.1156,8.3138 C20.4906,8.6328 21.5856,9.8038 21.9036,11.0838 C22.0126,11.6818 22.5346,12.1338 23.1586,12.1338 C23.8586,12.1338 24.4316,11.5608 24.4316,10.8608 C24.4316,9.9438 23.6616,8.5498 22.6106,7.5058 C21.5796,6.4868 20.3506,5.7668 19.3386,5.7668 C18.6376,5.7668 18.0646,6.3598 18.0646,7.0598 C18.0646,7.6838 18.5166,8.2058 19.1156,8.3138 L19.1156,8.3138 Z" id="Fill-3" sketch:type="MSShapeGroup"></path>
        </g>
    </g>
</svg>