<?xml version="1.0" encoding="UTF-8" standalone="no"?>
<svg width="14px" height="14px" viewBox="0 0 14 14" version="1.1" xmlns="http://www.w3.org/2000/svg" xmlns:xlink="http://www.w3.org/1999/xlink" xmlns:sketch="http://www.bohemiancoding.com/sketch/ns">
    <!-- Generator: Sketch 3.4 (15575) - http://www.bohemiancoding.com/sketch -->
    <title>ico-colecciones</title>
    <desc>Created with Sketch.</desc>
    <defs>
        <path id="path-1" d="M0,0 L14,0 L14,14 L0,14 L0,0 Z"></path>
    </defs>
    <g id="Page-1" stroke="none" stroke-width="1" fill="none" fill-rule="evenodd" sketch:type="MSPage">
        <g id="ico-colecciones" sketch:type="MSLayerGroup">
            <mask id="mask-2" sketch:name="Clip 2" fill="white">
                <use xlink:href="#path-1"></use>
            </mask>
            <g id="Clip-2"></g>
            <path d="M7.5833,6.7083 L6.4163,6.7083 C6.0953,6.7083 5.8333,6.4463 5.8333,6.1253 C5.8333,5.8043 6.0953,5.5413 6.4163,5.5413 L7.5833,5.5413 C7.9043,5.5413 8.1663,5.8043 8.1663,6.1253 C8.1663,6.4463 7.9043,6.7083 7.5833,6.7083 L7.5833,6.7083 Z M0.0003,12.8333 C0.0003,13.4783 0.5223,14.0003 1.1663,14.0003 L4.9583,14.0003 C5.6033,14.0003 6.1253,13.4783 6.1253,12.8333 L6.1253,8.1663 L7.8753,8.1663 L7.8753,12.8333 C7.8753,13.4783 8.3973,14.0003 9.0413,14.0003 L12.8333,14.0003 C13.4783,14.0003 14.0003,13.4783 14.0003,12.8333 L14.0003,5.2503 C14.0003,4.6053 13.4783,4.0833 12.8333,4.0833 L12.2503,4.0833 L12.2503,1.4583 L12.3953,1.4583 C12.7983,1.4583 13.1253,1.1313 13.1253,0.7293 C13.1253,0.3263 12.7983,0.0003 12.3953,0.0003 L8.6043,0.0003 C8.2013,0.0003 7.8753,0.3263 7.8753,0.7293 C7.8753,1.1313 8.2013,1.4583 8.6043,1.4583 L8.7503,1.4583 L8.7503,4.0833 L5.2503,4.0833 L5.2503,1.4583 L5.3953,1.4583 C5.7983,1.4583 6.1253,1.1313 6.1253,0.7293 C6.1253,0.3263 5.7983,0.0003 5.3953,0.0003 L1.6043,0.0003 C1.2013,0.0003 0.8753,0.3263 0.8753,0.7293 C0.8753,1.1313 1.2013,1.4583 1.6043,1.4583 L1.7503,1.4583 L1.7503,4.0833 L1.1663,4.0833 C0.5223,4.0833 0.0003,4.6053 0.0003,5.2503 L0.0003,12.8333 Z" id="Fill-1" fill="#262626" sketch:type="MSShapeGroup" mask="url(#mask-2)"></path>
        </g>
    </g>
</svg>