<?xml version="1.0" encoding="UTF-8" standalone="no"?>
<svg width="25px" height="20px" viewBox="0 0 25 20" version="1.1" xmlns="http://www.w3.org/2000/svg" xmlns:xlink="http://www.w3.org/1999/xlink" xmlns:sketch="http://www.bohemiancoding.com/sketch/ns">
    <!-- Generator: Sketch 3.4 (15575) - http://www.bohemiancoding.com/sketch -->
    <title>ico-tw</title>
    <desc>Created with Sketch.</desc>
    <defs>
        <path id="path-1" d="M0,0 L24.61,0 L24.61,20 L0,20"></path>
    </defs>
    <g id="Page-1" stroke="none" stroke-width="1" fill="none" fill-rule="evenodd" sketch:type="MSPage">
        <g id="ico-tw" sketch:type="MSLayerGroup">
            <mask id="mask-2" sketch:name="Clip 2" fill="white">
                <use xlink:href="#path-1"></use>
            </mask>
            <g id="Clip-2"></g>
            <path d="M24.6099,2.3675 C23.7049,2.7695 22.7309,3.0405 21.7099,3.1625 C22.7519,2.5375 23.5529,1.5485 23.9299,0.3695 C22.9539,0.9475 21.8739,1.3675 20.7239,1.5945 C19.8029,0.6135 18.4909,0.0005 17.0379,0.0005 C14.2499,0.0005 11.9889,2.2605 11.9889,5.0485 C11.9889,5.4445 12.0339,5.8295 12.1199,6.1995 C7.9239,5.9885 4.2039,3.9785 1.7129,0.9245 C1.2789,1.6695 1.0299,2.5375 1.0299,3.4625 C1.0299,5.2145 1.9209,6.7595 3.2759,7.6655 C2.4479,7.6385 1.6699,7.4115 0.9889,7.0335 L0.9889,7.0965 C0.9889,9.5435 2.7289,11.5835 5.0389,12.0475 C4.6149,12.1635 4.1689,12.2245 3.7089,12.2245 C3.3829,12.2245 3.0669,12.1935 2.7589,12.1345 C3.4009,14.1405 5.2659,15.6005 7.4749,15.6405 C5.7469,16.9945 3.5699,17.8025 1.2039,17.8025 C0.7969,17.8025 0.3949,17.7785 -0.0001,17.7315 C2.2339,19.1645 4.8879,20.0005 7.7399,20.0005 C17.0269,20.0005 22.1049,12.3065 22.1049,5.6345 C22.1049,5.4155 22.0999,5.1975 22.0909,4.9815 C23.0769,4.2695 23.9329,3.3805 24.6099,2.3675" id="Fill-1" fill="#FFFFFF" sketch:type="MSShapeGroup" mask="url(#mask-2)"></path>
        </g>
    </g>
</svg>