<?xml version="1.0" encoding="UTF-8" standalone="no"?>
<svg width="15px" height="15px" viewBox="0 0 15 15" version="1.1" xmlns="http://www.w3.org/2000/svg" xmlns:xlink="http://www.w3.org/1999/xlink" xmlns:sketch="http://www.bohemiancoding.com/sketch/ns">
    <!-- Generator: Sketch 3.4 (15575) - http://www.bohemiancoding.com/sketch -->
    <title>ico-region</title>
    <desc>Created with Sketch.</desc>
    <defs>
        <path id="path-1" d="M0,0 L15,0 L15,15 L0,15 L0,0 Z"></path>
    </defs>
    <g id="Page-1" stroke="none" stroke-width="1" fill="none" fill-rule="evenodd" sketch:type="MSPage">
        <g id="ico-region" sketch:type="MSLayerGroup">
            <mask id="mask-2" sketch:name="Clip 2" fill="white">
                <use xlink:href="#path-1"></use>
            </mask>
            <g id="Clip-2"></g>
            <path d="M8.2979,9.8936 L9.8679,9.8936 C9.5459,11.0616 9.0069,12.1406 8.2979,13.0846 L8.2979,9.8936 Z M5.1319,9.8936 L6.7019,9.8936 L6.7019,13.0846 C5.9939,12.1406 5.4539,11.0616 5.1319,9.8936 L5.1319,9.8936 Z M8.2979,6.3826 L10.1649,6.3826 C10.1969,6.6986 10.2129,7.0176 10.2129,7.3406 C10.2129,7.6626 10.1969,7.9816 10.1649,8.2976 L8.2979,8.2976 L8.2979,6.3826 Z M4.8349,6.3826 L6.7019,6.3826 L6.7019,8.2976 L4.8349,8.2976 C4.8029,7.9816 4.7869,7.6626 4.7869,7.3406 C4.7869,7.0176 4.8029,6.6986 4.8349,6.3826 L4.8349,6.3826 Z M4.4969,12.5836 C3.4439,11.9616 2.6009,11.0206 2.0999,9.8936 L3.4849,9.8936 C3.7089,10.8416 4.0499,11.7476 4.4969,12.5836 L4.4969,12.5836 Z M12.8999,9.8936 C12.3989,11.0206 11.5569,11.9616 10.5029,12.5836 C10.9499,11.7446 11.2919,10.8416 11.5149,9.8936 L12.8999,9.8936 Z M13.2989,6.3826 C13.3689,6.7436 13.4039,7.1166 13.4039,7.4996 C13.4039,7.7716 13.3849,8.0366 13.3499,8.2976 L11.7699,8.2976 C11.7959,7.9816 11.8089,7.6626 11.8089,7.3406 C11.8089,7.0176 11.7959,6.6986 11.7699,6.3826 L13.2989,6.3826 Z M10.7359,2.5626 C11.5819,3.1176 12.2779,3.8836 12.7439,4.7876 L11.5149,4.7876 C11.3359,4.0116 11.0709,3.2676 10.7359,2.5626 L10.7359,2.5626 Z M8.2979,1.6496 L8.3429,1.6566 C9.0289,2.5856 9.5519,3.6446 9.8679,4.7876 L8.2979,4.7876 L8.2979,1.6496 Z M6.6539,1.6566 L6.7019,1.6496 L6.7019,4.7876 L5.1319,4.7876 C5.4479,3.6446 5.9679,2.5856 6.6539,1.6566 L6.6539,1.6566 Z M2.2559,4.7876 C2.7219,3.8836 3.4149,3.1176 4.2609,2.5626 C3.9259,3.2676 3.6639,4.0116 3.4819,4.7876 L2.2559,4.7876 Z M1.5959,7.4996 C1.5959,7.1166 1.6309,6.7436 1.7009,6.3826 L3.2329,6.3826 C3.2039,6.6986 3.1919,7.0176 3.1919,7.3406 C3.1919,7.6626 3.2039,7.9816 3.2329,8.2976 L1.6469,8.2976 C1.6119,8.0366 1.5959,7.7716 1.5959,7.4996 L1.5959,7.4996 Z M-0.0001,7.4996 C-0.0001,11.6426 3.3579,14.9996 7.4999,14.9996 C11.6429,14.9996 14.9999,11.6426 14.9999,7.4996 C14.9999,3.3576 11.6429,-0.0004 7.4999,-0.0004 C3.3579,-0.0004 -0.0001,3.3576 -0.0001,7.4996 L-0.0001,7.4996 Z" id="Fill-1" fill="#6B6B6B" sketch:type="MSShapeGroup" mask="url(#mask-2)"></path>
        </g>
    </g>
</svg>