<?xml version="1.0" encoding="UTF-8" standalone="no"?>
<svg width="16px" height="16px" viewBox="0 0 16 16" version="1.1" xmlns="http://www.w3.org/2000/svg" xmlns:xlink="http://www.w3.org/1999/xlink" xmlns:sketch="http://www.bohemiancoding.com/sketch/ns">
    <!-- Generator: Sketch 3.4 (15575) - http://www.bohemiancoding.com/sketch -->
    <title>ico-grupos</title>
    <desc>Created with Sketch.</desc>
    <defs>
        <path id="path-1" d="M0,0.85 L15.229,0.85 L15.229,16 L0,16 L0,0.85 Z"></path>
    </defs>
    <g id="Page-1" stroke="none" stroke-width="1" fill="none" fill-rule="evenodd" sketch:type="MSPage">
        <g id="ico-grupos" sketch:type="MSLayerGroup">
            <mask id="mask-2" sketch:name="Clip 2" fill="white">
                <use xlink:href="#path-1"></use>
            </mask>
            <g id="Clip-2"></g>
            <path d="M0,11.0823 C0,11.5203 0.355,11.8753 0.793,11.8753 C1.231,11.8753 1.586,11.5203 1.586,11.0823 L1.586,10.3523 C1.586,9.9653 1.897,9.6543 2.284,9.6543 L2.564,9.6543 C2.548,9.8003 2.538,9.9523 2.538,10.1083 C2.538,10.7273 2.656,11.3173 2.868,11.8593 L1.904,12.8973 C1.723,13.0903 1.586,13.5193 1.586,13.7793 L1.586,15.2073 C1.586,15.6443 1.942,16.0003 2.38,16.0003 C2.817,16.0003 3.173,15.6443 3.173,15.2073 L3.173,14.2363 C3.173,14.0933 3.214,13.9633 3.287,13.8523 L3.772,13.3353 C4.382,14.0233 5.076,14.7243 6.104,15.0033 C6.127,15.0133 6.152,15.0193 6.177,15.0263 C6.231,15.0423 6.288,15.0483 6.345,15.0483 C6.695,15.0483 6.98,14.7623 6.98,14.4133 L6.98,9.0203 C6.98,8.6713 7.266,8.3853 7.615,8.3853 C7.964,8.3853 8.249,8.6713 8.249,9.0203 L8.249,14.4133 C8.249,14.7623 8.535,15.0483 8.884,15.0483 C8.95,15.0483 9.017,15.0383 9.08,15.0163 L9.16,14.9943 C10.143,14.7213 10.854,14.0173 11.457,13.3353 L11.942,13.8523 C12.015,13.9633 12.056,14.0933 12.056,14.2363 L12.056,15.2073 C12.056,15.6443 12.412,16.0003 12.85,16.0003 C13.287,16.0003 13.643,15.6443 13.643,15.2073 L13.643,13.7793 C13.643,13.5193 13.506,13.0903 13.326,12.8973 L12.361,11.8593 C12.574,11.3173 12.691,10.7273 12.691,10.1083 C12.691,9.9523 12.681,9.8003 12.666,9.6543 L12.945,9.6543 C13.332,9.6543 13.643,9.9653 13.643,10.3523 L13.643,11.0823 C13.643,11.5203 13.998,11.8753 14.436,11.8753 C14.874,11.8753 15.229,11.5203 15.229,11.0823 L15.229,9.6543 C15.229,8.7793 14.518,8.0683 13.643,8.0683 L12.148,8.0683 C12.006,7.8013 11.844,7.5443 11.679,7.2873 L13.008,5.8473 C13.189,5.6533 13.326,5.2003 13.326,4.8953 L13.326,3.4673 C13.326,3.0303 12.97,2.6743 12.532,2.6743 C12.095,2.6743 11.739,3.0303 11.739,3.4673 L11.739,4.5143 C11.739,4.6573 11.698,4.7873 11.625,4.8983 L10.771,5.8123 C10.416,5.1203 10.153,4.3303 10.153,3.3093 C10.153,2.1253 9.344,1.1323 8.249,0.8503 L8.249,2.3573 C8.249,2.7063 7.964,2.9923 7.615,2.9923 C7.266,2.9923 6.98,2.7063 6.98,2.3573 L6.98,0.8503 C5.885,1.1323 5.076,2.1253 5.076,3.3093 C5.076,4.3273 4.81,5.1143 4.455,5.8063 L3.604,4.8983 C3.531,4.7873 3.49,4.6573 3.49,4.5143 L3.49,3.4673 C3.49,3.0303 3.135,2.6743 2.697,2.6743 C2.259,2.6743 1.904,3.0303 1.904,3.4673 L1.904,4.8953 C1.904,5.2003 2.04,5.6533 2.221,5.8473 L3.544,7.2813 C3.376,7.5383 3.217,7.7983 3.074,8.0683 L1.586,8.0683 C0.711,8.0683 0,8.7793 0,9.6543 L0,11.0823 Z" id="Fill-1" fill="#262626" sketch:type="MSShapeGroup" mask="url(#mask-2)"></path>
        </g>
    </g>
</svg>