<?xml version="1.0" encoding="UTF-8" standalone="no"?>
<svg width="15px" height="15px" viewBox="0 0 15 15" version="1.1" xmlns="http://www.w3.org/2000/svg" xmlns:xlink="http://www.w3.org/1999/xlink" xmlns:sketch="http://www.bohemiancoding.com/sketch/ns">
    <!-- Generator: Sketch 3.4 (15575) - http://www.bohemiancoding.com/sketch -->
    <title>ico-zonas</title>
    <desc>Created with Sketch.</desc>
    <defs>
        <path id="path-1" d="M0,0 L15,0 L15,15 L0,15 L0,0 Z"></path>
    </defs>
    <g id="Page-1" stroke="none" stroke-width="1" fill="none" fill-rule="evenodd" sketch:type="MSPage">
        <g id="ico-zonas" sketch:type="MSLayerGroup">
            <mask id="mask-2" sketch:name="Clip 2" fill="white">
                <use xlink:href="#path-1"></use>
            </mask>
            <g id="Clip-2"></g>
            <path d="M6.1343,1.7219 C6.5713,1.6159 7.0283,1.5629 7.5003,1.5629 C8.0213,1.5629 8.5283,1.6309 9.0093,1.7559 L8.7503,2.1879 L9.0623,2.4999 L10.0003,2.4999 L10.2593,2.2409 C10.4783,2.3559 10.6843,2.4809 10.8843,2.6219 L10.3123,2.8129 L9.6873,3.4379 L10.3123,3.7499 L10.3123,4.0629 L9.6873,4.0629 L9.6873,4.6879 C9.6873,4.6879 10.1183,4.9999 10.6253,4.9999 C11.1213,4.9999 10.9003,4.3159 11.2503,4.0629 C11.6033,3.8089 12.0313,3.8659 12.0313,3.8659 L12.2343,3.9189 C12.6153,4.4219 12.9183,4.9849 13.1253,5.5939 L13.1253,5.6249 C13.1253,5.6249 12.6843,5.3129 11.8753,5.3129 C11.0653,5.3129 10.3123,5.6249 10.3123,5.6249 C10.3123,5.6249 9.4313,5.8809 9.3753,6.5629 C9.2783,7.7339 9.6873,8.1249 9.6873,8.1249 L11.2503,9.0629 L11.2503,12.1029 C10.2283,12.9379 8.9213,13.4379 7.5003,13.4379 C6.8283,13.4379 6.1843,13.3279 5.5813,13.1219 L7.1873,9.3749 L6.8753,7.8129 C6.8753,7.8129 5.6343,6.2499 5.0003,6.2499 C4.3653,6.2499 4.0623,7.1879 4.0623,7.1879 L3.4373,5.9379 L5.3123,4.6879 L6.2503,2.1879 L6.1343,1.7219 Z M1.5623,7.4999 C1.5623,7.0189 1.6183,6.5499 1.7283,6.1029 L3.1253,7.4999 L2.8123,9.3749 L4.0623,10.6249 L4.0623,12.3409 C2.5503,11.2659 1.5623,9.4969 1.5623,7.4999 L1.5623,7.4999 Z M0.0003,7.4999 C0.0003,11.6439 3.3563,14.9999 7.5003,14.9999 C11.6433,14.9999 15.0003,11.6439 15.0003,7.4999 C15.0003,3.3559 11.6433,-0.0001 7.5003,-0.0001 C3.3563,-0.0001 0.0003,3.3559 0.0003,7.4999 L0.0003,7.4999 Z" id="Fill-1" fill="#262626" sketch:type="MSShapeGroup" mask="url(#mask-2)"></path>
        </g>
    </g>
</svg>