<?xml version="1.0" encoding="UTF-8" standalone="no"?>
<svg width="8px" height="8px" viewBox="0 0 8 8" version="1.1" xmlns="http://www.w3.org/2000/svg" xmlns:xlink="http://www.w3.org/1999/xlink" xmlns:sketch="http://www.bohemiancoding.com/sketch/ns">
    <!-- Generator: Sketch 3.4 (15575) - http://www.bohemiancoding.com/sketch -->
    <title>ico-close-tag</title>
    <desc>Created with Sketch.</desc>
    <defs>
        <path id="path-1" d="M0,0 L8,0 L8,8 L0,8 L0,0 Z"></path>
    </defs>
    <g id="Page-1" stroke="none" stroke-width="1" fill="none" fill-rule="evenodd" sketch:type="MSPage">
        <g id="ico-close-tag" sketch:type="MSLayerGroup">
            <mask id="mask-2" sketch:name="Clip 2" fill="white">
                <use xlink:href="#path-1"></use>
            </mask>
            <g id="Clip-2"></g>
            <path d="M5.4594,4.0001 L7.6554,1.8041 C8.0904,1.3691 8.1174,0.6871 7.7154,0.2851 C7.3124,-0.1169 6.6314,-0.0909 6.1954,0.3451 L4.0004,2.5411 L1.8044,0.3451 C1.3684,-0.0909 0.6874,-0.1169 0.2854,0.2851 C-0.1176,0.6871 -0.0906,1.3691 0.3444,1.8041 L2.5404,4.0001 L0.3444,6.1961 C-0.0906,6.6311 -0.1176,7.3131 0.2854,7.7151 C0.6874,8.1171 1.3684,8.0901 1.8044,7.6551 L4.0004,5.4591 L6.1954,7.6551 C6.6314,8.0901 7.3124,8.1171 7.7154,7.7151 C8.1174,7.3131 8.0904,6.6311 7.6554,6.1961 L5.4594,4.0001 Z" id="Fill-1" fill="#F2F2F2" sketch:type="MSShapeGroup" mask="url(#mask-2)"></path>
        </g>
    </g>
</svg>