<?xml version="1.0" encoding="UTF-8" standalone="no"?>
<svg width="55px" height="55px" viewBox="0 0 55 55" version="1.1" xmlns="http://www.w3.org/2000/svg" xmlns:xlink="http://www.w3.org/1999/xlink" xmlns:sketch="http://www.bohemiancoding.com/sketch/ns">
    <!-- Generator: Sketch 3.4 (15575) - http://www.bohemiancoding.com/sketch -->
    <title>login-go</title>
    <desc>Created with Sketch.</desc>
    <defs></defs>
    <g id="Page-1" stroke="none" stroke-width="1" fill="none" fill-rule="evenodd" sketch:type="MSPage">
        <g id="login-go" sketch:type="MSLayerGroup">
            <path d="M52,55 L3,55 C1.35,55 0,53.65 0,52 L0,3 C0,1.35 1.35,0 3,0 L52,0 C53.65,0 55,1.35 55,3 L55,52 C55,53.65 53.65,55 52,55" id="Fill-1" fill="#357ABD" sketch:type="MSShapeGroup"></path>
            <path d="M28.1931,44.051 C23.7941,44.349 20.0531,41.99 19.8361,38.782 C19.6181,35.574 23.0081,32.732 27.4061,32.434 C31.8061,32.136 35.5481,34.494 35.7661,37.702 C35.9831,40.911 32.5921,43.753 28.1931,44.051 M22.7361,18.496 C21.7391,14.828 23.0531,11.276 25.6731,10.564 C28.2931,9.852 31.2251,12.248 32.2231,15.916 C33.2211,19.585 31.9061,23.137 29.2861,23.849 C26.6661,24.561 23.7341,22.165 22.7361,18.496 M31.9431,26.373 C31.9431,23.891 37.4031,23.171 37.4031,17.338 C37.4031,13.838 37.0811,11.728 34.3261,10.487 C34.3261,9.618 39.1901,10.189 39.1901,8.567 L28.5341,8.567 C28.5341,8.567 17.7451,8.832 17.7451,17.966 C17.7451,27.1 27.1771,26.041 27.1771,26.041 L27.1771,28.358 C27.1771,29.293 28.4431,28.979 28.6001,30.873 C27.9631,30.873 15.4941,30.543 15.4941,38.816 C15.4941,47.089 26.4821,46.693 26.4821,46.693 C26.4821,46.693 39.1901,47.272 39.1901,36.996 C39.1901,30.841 31.9431,28.855 31.9431,26.373" id="Fill-3" fill="#FFFFFF" sketch:type="MSShapeGroup"></path>
        </g>
    </g>
</svg>