<?xml version="1.0" encoding="UTF-8" standalone="no"?>
<svg width="187px" height="61px" viewBox="0 0 187 61" version="1.1" xmlns="http://www.w3.org/2000/svg" xmlns:xlink="http://www.w3.org/1999/xlink" xmlns:sketch="http://www.bohemiancoding.com/sketch/ns">
    <!-- Generator: Sketch 3.4 (15575) - http://www.bohemiancoding.com/sketch -->
    <title>logo-sib</title>
    <desc>Created with Sketch.</desc>
    <defs>
        <path id="path-1" d="M0,0.762 L186.135,0.762 L186.135,61 L0,61 L0,0.762 Z"></path>
        <path id="path-3" d="M0,0.762 L186.135,0.762 L186.135,61 L0,61 L0,0.762 Z"></path>
    </defs>
    <g id="Page-1" stroke="none" stroke-width="1" fill="none" fill-rule="evenodd" sketch:type="MSPage">
        <g id="logo-sib" sketch:type="MSLayerGroup">
            <path d="M72.5784,6.0928 C71.4414,6.0928 70.5374,6.6938 69.8664,7.8958 C69.1944,9.0978 68.8584,10.7618 68.8584,12.8908 C68.8584,14.2748 69.0144,15.4808 69.3234,16.5058 C69.6344,17.5318 70.0784,18.3218 70.6564,18.8718 C71.2344,19.4228 71.9064,19.6978 72.6714,19.6978 C73.4564,19.6978 74.1314,19.5578 74.6954,19.2748 L74.6954,20.2048 C74.1584,20.5148 73.4524,20.6698 72.5784,20.6698 C71.6204,20.6698 70.7824,20.3598 70.0624,19.7388 C69.3434,19.1198 68.7864,18.2228 68.3934,17.0488 C68.0014,15.8738 67.8054,14.4818 67.8054,12.8698 C67.8054,10.4588 68.2334,8.5658 69.0914,7.1878 C69.9484,5.8108 71.1174,5.1208 72.5994,5.1208 C73.5214,5.1208 74.3274,5.3348 75.0164,5.7618 L74.5514,6.6508 C73.9734,6.2788 73.3144,6.0928 72.5784,6.0928" id="Fill-1" fill="#FFFFFF" sketch:type="MSShapeGroup"></path>
            <path d="M81.5784,13.9649 L80.2454,8.3339 C80.1074,7.7009 80.0014,7.1019 79.9254,6.5369 C79.8634,7.1359 79.7664,7.7359 79.6364,8.3339 L78.3454,13.9649 L81.5784,13.9649 Z M83.1484,20.4629 L81.8154,14.9869 L78.1484,14.9869 L76.8364,20.4629 L75.7824,20.4629 L79.4194,5.3599 L80.4624,5.3599 L84.1824,20.4629 L83.1484,20.4629 Z" id="Fill-3" fill="#FFFFFF" sketch:type="MSShapeGroup"></path>
            <path d="M87.4222,20.4629 L86.4102,20.4629 L86.4102,6.3299 L83.4032,6.3299 L83.4032,5.3589 L90.4292,5.3589 L90.4292,6.3299 L87.4222,6.3299 L87.4222,20.4629 Z" id="Fill-5" fill="#FFFFFF" sketch:type="MSShapeGroup"></path>
            <g id="Group-9">
                <mask id="mask-2" sketch:name="Clip 8" fill="white">
                    <use xlink:href="#path-1"></use>
                </mask>
                <g id="Clip-8"></g>
                <path d="M93.1614,4.1504 L93.1614,3.9334 C94.0364,2.7904 94.6934,1.7334 95.1354,0.7614 L96.4264,0.7614 L96.4264,0.9374 C96.1574,1.4204 95.7494,1.9744 95.2024,2.6004 C94.6544,3.2274 94.1364,3.7444 93.6464,4.1504 L93.1614,4.1504 Z M95.4554,13.9644 L94.1224,8.3344 C93.9844,7.7014 93.8784,7.1014 93.8024,6.5374 C93.7404,7.1354 93.6434,7.7354 93.5134,8.3344 L92.2224,13.9644 L95.4554,13.9644 Z M97.0254,20.4624 L95.6924,14.9874 L92.0254,14.9874 L90.7134,20.4624 L89.6594,20.4624 L93.2964,5.3594 L94.3394,5.3594 L98.0584,20.4624 L97.0254,20.4624 Z" id="Fill-7" fill="#FFFFFF" sketch:type="MSShapeGroup" mask="url(#mask-2)"></path>
            </g>
            <path d="M99.5423,20.4629 L99.5423,5.3589 L100.5543,5.3589 L100.5543,19.4919 L104.8113,19.4919 L104.8113,20.4629 L99.5423,20.4629 Z" id="Fill-10" fill="#FFFFFF" sketch:type="MSShapeGroup"></path>
            <path d="M106.5872,12.8907 C106.5872,15.1357 106.8682,16.8317 107.4292,17.9787 C107.9902,19.1247 108.8092,19.6987 109.8832,19.6987 C110.9642,19.6987 111.7852,19.1297 112.3472,17.9947 C112.9082,16.8577 113.1892,15.1567 113.1892,12.8907 C113.1892,10.6527 112.9132,8.9627 112.3622,7.8237 C111.8122,6.6837 110.9952,6.1137 109.9142,6.1137 C108.8052,6.1137 107.9742,6.6907 107.4192,7.8437 C106.8642,8.9967 106.5872,10.6797 106.5872,12.8907 M114.2422,12.8907 C114.2422,15.3907 113.8692,17.3117 113.1212,18.6557 C112.3742,19.9977 111.2952,20.6697 109.8832,20.6697 C108.4572,20.6697 107.3762,19.9937 106.6392,18.6397 C105.9012,17.2867 105.5332,15.3637 105.5332,12.8697 C105.5332,10.2667 105.8992,8.3277 106.6292,7.0537 C107.3582,5.7797 108.4532,5.1427 109.9142,5.1427 C111.3182,5.1427 112.3922,5.8127 113.1322,7.1517 C113.8722,8.4917 114.2422,10.4047 114.2422,12.8907" id="Fill-12" fill="#FFFFFF" sketch:type="MSShapeGroup"></path>
            <path d="M121.5179,12.8487 L124.8239,12.8487 L124.8239,19.9977 C123.6729,20.4457 122.4789,20.6697 121.2389,20.6697 C119.5929,20.6697 118.3159,19.9807 117.4069,18.6037 C116.4969,17.2257 116.0419,15.3147 116.0419,12.8697 C116.0419,10.4177 116.5129,8.5167 117.4529,7.1667 C118.3929,5.8177 119.7129,5.1427 121.4139,5.1427 C122.5579,5.1427 123.6359,5.4657 124.6479,6.1137 L124.1629,7.0017 C123.2119,6.3957 122.2959,6.0927 121.4139,6.0927 C120.0019,6.0927 118.9339,6.6727 118.2069,7.8327 C117.4799,8.9947 117.1169,10.6797 117.1169,12.8907 C117.1169,15.0527 117.4839,16.7287 118.2169,17.9157 C118.9509,19.1047 119.9889,19.6987 121.3319,19.6987 C122.2959,19.6987 123.1199,19.5717 123.8009,19.3167 L123.8009,13.8207 L121.5179,13.8207 L121.5179,12.8487 Z" id="Fill-14" fill="#FFFFFF" sketch:type="MSShapeGroup"></path>
            <path d="M127.6976,12.8907 C127.6976,15.1357 127.9786,16.8317 128.5396,17.9787 C129.1006,19.1247 129.9196,19.6987 130.9936,19.6987 C132.0746,19.6987 132.8956,19.1297 133.4576,17.9947 C134.0186,16.8577 134.2996,15.1567 134.2996,12.8907 C134.2996,10.6527 134.0236,8.9627 133.4726,7.8237 C132.9226,6.6837 132.1056,6.1137 131.0246,6.1137 C129.9156,6.1137 129.0846,6.6907 128.5296,7.8437 C127.9746,8.9967 127.6976,10.6797 127.6976,12.8907 M135.3526,12.8907 C135.3526,15.3907 134.9796,17.3117 134.2316,18.6557 C133.4846,19.9977 132.4056,20.6697 130.9936,20.6697 C129.5676,20.6697 128.4866,19.9937 127.7496,18.6397 C127.0116,17.2867 126.6436,15.3637 126.6436,12.8697 C126.6436,10.2667 127.0096,8.3277 127.7396,7.0537 C128.4686,5.7797 129.5636,5.1427 131.0246,5.1427 C132.4286,5.1427 133.5026,5.8127 134.2426,7.1517 C134.9826,8.4917 135.3526,10.4047 135.3526,12.8907" id="Fill-16" fill="#FFFFFF" sketch:type="MSShapeGroup"></path>
            <path d="M147.7103,12.8282 C147.7103,10.7002 147.3973,9.0782 146.7703,7.9632 C146.1433,6.8472 145.2173,6.2892 143.9903,6.2892 L142.2963,6.2892 L142.2963,19.5332 L143.9083,19.5332 C145.2173,19.5332 146.1773,18.9622 146.7903,17.8182 C147.4033,16.6752 147.7103,15.0122 147.7103,12.8282 M148.7733,12.7662 C148.7733,17.8972 147.1733,20.4632 143.9703,20.4632 L141.2843,20.4632 L141.2843,5.3592 L144.0323,5.3592 C145.5883,5.3592 146.7683,5.9872 147.5703,7.2442 C148.3723,8.5022 148.7733,10.3422 148.7733,12.7662" id="Fill-18" fill="#FFFFFF" sketch:type="MSShapeGroup"></path>
            <path d="M156.4456,20.4629 L150.9706,20.4629 L150.9706,5.3589 L156.4456,5.3589 L156.4456,6.3299 L151.9826,6.3299 L151.9826,12.0639 L156.1986,12.0639 L156.1986,13.0349 L151.9826,13.0349 L151.9826,19.4919 L156.4456,19.4919 L156.4456,20.4629 Z" id="Fill-20" fill="#FFFFFF" sketch:type="MSShapeGroup"></path>
            <path d="M68.3118,39.8575 L68.3118,24.7535 L69.3238,24.7535 L69.3238,38.8865 L73.5808,38.8865 L73.5808,39.8575 L68.3118,39.8575 Z" id="Fill-22" fill="#FFFFFF" sketch:type="MSShapeGroup"></path>
            <path d="M80.261,33.3594 L78.928,27.7284 C78.79,27.0954 78.684,26.4964 78.608,25.9314 C78.546,26.5304 78.449,27.1304 78.319,27.7284 L77.028,33.3594 L80.261,33.3594 Z M81.831,39.8574 L80.498,34.3814 L76.831,34.3814 L75.519,39.8574 L74.465,39.8574 L78.102,24.7544 L79.145,24.7544 L82.865,39.8574 L81.831,39.8574 Z" id="Fill-24" fill="#FFFFFF" sketch:type="MSShapeGroup"></path>
            <path d="M88.6614,32.4092 L88.6614,38.9282 L90.9864,38.9282 C92.6524,38.9282 93.4864,37.7982 93.4864,35.5392 C93.4864,34.5332 93.2414,33.7612 92.7534,33.2202 C92.2644,32.6802 91.5784,32.4092 90.6964,32.4092 L88.6614,32.4092 Z M88.6614,31.4792 L90.5624,31.4792 C91.5064,31.4792 92.1794,31.2192 92.5824,30.6992 C92.9854,30.1792 93.1864,29.3882 93.1864,28.3282 C93.1864,27.4742 92.9644,26.8202 92.5204,26.3652 C92.0764,25.9112 91.4164,25.6832 90.5424,25.6832 L88.6614,25.6832 L88.6614,31.4792 Z M87.6494,24.7542 L90.5424,24.7542 C91.7264,24.7542 92.6374,25.0562 93.2744,25.6632 C93.9114,26.2682 94.2294,27.1642 94.2294,28.3482 C94.2294,30.3942 93.4824,31.5652 91.9884,31.8612 L91.9884,31.9442 C92.8484,32.1232 93.4894,32.5072 93.9094,33.0962 C94.3294,33.6842 94.5404,34.5062 94.5404,35.5592 C94.5404,36.9102 94.2404,37.9642 93.6404,38.7212 C93.0424,39.4782 92.2014,39.8572 91.1204,39.8572 L87.6494,39.8572 L87.6494,24.7542 Z" id="Fill-26" fill="#FFFFFF" sketch:type="MSShapeGroup"></path>
            <mask id="mask-4" sketch:name="Clip 29" fill="white">
                <use xlink:href="#path-3"></use>
            </mask>
            <g id="Clip-29"></g>
            <path d="M96.596,24.754 L97.608,24.754 L97.608,39.858 L96.596,39.858 L96.596,24.754 Z" id="Fill-28" fill="#FFFFFF" sketch:type="MSShapeGroup" mask="url(#mask-4)"></path>
            <path d="M100.931,32.2852 C100.931,34.5302 101.212,36.2262 101.773,37.3732 C102.334,38.5192 103.153,39.0932 104.227,39.0932 C105.308,39.0932 106.129,38.5242 106.691,37.3892 C107.252,36.2522 107.533,34.5512 107.533,32.2852 C107.533,30.0472 107.257,28.3572 106.706,27.2182 C106.156,26.0782 105.339,25.5082 104.258,25.5082 C103.149,25.5082 102.318,26.0852 101.763,27.2382 C101.208,28.3912 100.931,30.0742 100.931,32.2852 M108.586,32.2852 C108.586,34.7852 108.213,36.7062 107.465,38.0502 C106.718,39.3922 105.639,40.0642 104.227,40.0642 C102.801,40.0642 101.72,39.3882 100.983,38.0342 C100.245,36.6812 99.877,34.7582 99.877,32.2642 C99.877,29.6612 100.243,27.7222 100.973,26.4482 C101.702,25.1742 102.797,24.5372 104.258,24.5372 C105.662,24.5372 106.736,25.2072 107.476,26.5462 C108.216,27.8862 108.586,29.7992 108.586,32.2852" id="Fill-30" fill="#FFFFFF" sketch:type="MSShapeGroup" mask="url(#mask-4)"></path>
            <path d="M117.2659,32.2227 C117.2659,30.0947 116.9529,28.4727 116.3259,27.3577 C115.6989,26.2417 114.7729,25.6837 113.5459,25.6837 L111.8519,25.6837 L111.8519,38.9277 L113.4639,38.9277 C114.7729,38.9277 115.7329,38.3567 116.3459,37.2127 C116.9589,36.0697 117.2659,34.4067 117.2659,32.2227 M118.3289,32.1607 C118.3289,37.2917 116.7289,39.8577 113.5259,39.8577 L110.8399,39.8577 L110.8399,24.7537 L113.5879,24.7537 C115.1439,24.7537 116.3239,25.3817 117.1259,26.6387 C117.9279,27.8967 118.3289,29.7367 118.3289,32.1607" id="Fill-31" fill="#FFFFFF" sketch:type="MSShapeGroup" mask="url(#mask-4)"></path>
            <path d="M120.548,24.754 L121.56,24.754 L121.56,39.858 L120.548,39.858 L120.548,24.754 Z" id="Fill-32" fill="#FFFFFF" sketch:type="MSShapeGroup" mask="url(#mask-4)"></path>
            <path d="M130.2523,24.7539 L131.2953,24.7539 L127.7213,39.8579 L126.5953,39.8579 L123.0413,24.7539 L124.0953,24.7539 L126.5543,35.3739 C126.7463,36.1869 126.8743,36.7839 126.9363,37.1659 C126.9983,37.5489 127.0603,38.0289 127.1223,38.6079 C127.1773,38.2079 127.2353,37.8159 127.2973,37.4299 C127.3593,37.0439 127.4203,36.7189 127.4793,36.4529 C127.5363,36.1889 128.4613,32.2879 130.2523,24.7539" id="Fill-33" fill="#FFFFFF" sketch:type="MSShapeGroup" mask="url(#mask-4)"></path>
            <path d="M138.262,39.8575 L132.787,39.8575 L132.787,24.7535 L138.262,24.7535 L138.262,25.7245 L133.799,25.7245 L133.799,31.4585 L138.015,31.4585 L138.015,32.4295 L133.799,32.4295 L133.799,38.8865 L138.262,38.8865 L138.262,39.8575 Z" id="Fill-34" fill="#FFFFFF" sketch:type="MSShapeGroup" mask="url(#mask-4)"></path>
            <path d="M141.2571,32.3262 L142.6731,32.3262 C143.5891,32.3262 144.2951,32.0442 144.7901,31.4792 C145.2861,30.9142 145.5341,30.0742 145.5341,28.9582 C145.5341,27.8222 145.2811,27.0022 144.7751,26.5002 C144.2691,25.9972 143.4721,25.7452 142.3831,25.7452 L141.2571,25.7452 L141.2571,32.3262 Z M141.2571,33.2562 L141.2571,39.8572 L140.2451,39.8572 L140.2451,24.7542 L142.3111,24.7542 C143.7851,24.7542 144.8621,25.1012 145.5451,25.7972 C146.2271,26.4932 146.5681,27.5322 146.5681,28.9172 C146.5681,29.9642 146.3811,30.8252 146.0101,31.5002 C145.6381,32.1752 145.0141,32.6802 144.1401,33.0182 L147.1361,39.8572 L145.9991,39.8572 L143.1791,33.2562 L141.2571,33.2562 Z" id="Fill-35" fill="#FFFFFF" sketch:type="MSShapeGroup" mask="url(#mask-4)"></path>
            <path d="M155.0286,35.9004 C155.0286,37.1404 154.6846,38.1444 153.9956,38.9124 C153.3066,39.6804 152.4316,40.0644 151.3716,40.0644 C150.1666,40.0644 149.1986,39.8884 148.4686,39.5374 L148.4686,38.4424 C148.8266,38.6414 149.2706,38.7994 149.8006,38.9174 C150.3316,39.0344 150.8546,39.0924 151.3716,39.0924 C152.1426,39.0924 152.7766,38.7994 153.2726,38.2144 C153.7686,37.6294 154.0166,36.8854 154.0166,35.9834 C154.0166,35.1504 153.8416,34.4894 153.4896,34.0004 C153.1376,33.5104 152.4666,33.0214 151.4746,32.5334 C150.6966,32.1404 150.1146,31.7594 149.7286,31.3914 C149.3426,31.0224 149.0576,30.5934 148.8716,30.1054 C148.6856,29.6164 148.5926,29.0304 148.5926,28.3484 C148.5926,27.6044 148.7446,26.9434 149.0476,26.3654 C149.3496,25.7874 149.7736,25.3374 150.3176,25.0164 C150.8616,24.6974 151.4586,24.5374 152.1056,24.5374 C152.6906,24.5374 153.2226,24.6024 153.7016,24.7334 C154.1796,24.8644 154.5566,25.0044 154.8326,25.1564 L154.4396,26.1284 C153.6756,25.7354 152.8966,25.5394 152.1056,25.5394 C151.3616,25.5394 150.7576,25.7924 150.2926,26.2974 C149.8276,26.8044 149.5946,27.4744 149.5946,28.3074 C149.5946,29.1544 149.7636,29.8124 150.1006,30.2804 C150.4386,30.7494 151.0996,31.2344 152.0846,31.7374 C153.1036,32.2334 153.8496,32.8134 154.3216,33.4784 C154.7936,34.1424 155.0286,34.9504 155.0286,35.9004" id="Fill-36" fill="#FFFFFF" sketch:type="MSShapeGroup" mask="url(#mask-4)"></path>
            <path d="M156.969,24.754 L157.981,24.754 L157.981,39.858 L156.969,39.858 L156.969,24.754 Z" id="Fill-37" fill="#FFFFFF" sketch:type="MSShapeGroup" mask="url(#mask-4)"></path>
            <path d="M167.0843,32.2227 C167.0843,30.0947 166.7713,28.4727 166.1443,27.3577 C165.5173,26.2417 164.5913,25.6837 163.3643,25.6837 L161.6703,25.6837 L161.6703,38.9277 L163.2823,38.9277 C164.5913,38.9277 165.5513,38.3567 166.1643,37.2127 C166.7773,36.0697 167.0843,34.4067 167.0843,32.2227 M168.1473,32.1607 C168.1473,37.2917 166.5473,39.8577 163.3443,39.8577 L160.6583,39.8577 L160.6583,24.7537 L163.4063,24.7537 C164.9623,24.7537 166.1423,25.3817 166.9443,26.6387 C167.7463,27.8967 168.1473,29.7367 168.1473,32.1607" id="Fill-38" fill="#FFFFFF" sketch:type="MSShapeGroup" mask="url(#mask-4)"></path>
            <path d="M174.5579,33.3594 L173.2249,27.7284 C173.0869,27.0954 172.9809,26.4964 172.9049,25.9314 C172.8429,26.5304 172.7459,27.1304 172.6159,27.7284 L171.3249,33.3594 L174.5579,33.3594 Z M176.1279,39.8574 L174.7949,34.3814 L171.1279,34.3814 L169.8159,39.8574 L168.7619,39.8574 L172.3989,24.7544 L173.4419,24.7544 L177.1619,39.8574 L176.1279,39.8574 Z" id="Fill-39" fill="#FFFFFF" sketch:type="MSShapeGroup" mask="url(#mask-4)"></path>
            <path d="M185.0716,32.2227 C185.0716,30.0947 184.7586,28.4727 184.1316,27.3577 C183.5046,26.2417 182.5786,25.6837 181.3516,25.6837 L179.6576,25.6837 L179.6576,38.9277 L181.2696,38.9277 C182.5786,38.9277 183.5386,38.3567 184.1516,37.2127 C184.7646,36.0697 185.0716,34.4067 185.0716,32.2227 M186.1346,32.1607 C186.1346,37.2917 184.5346,39.8577 181.3316,39.8577 L178.6456,39.8577 L178.6456,24.7537 L181.3936,24.7537 C182.9496,24.7537 184.1296,25.3817 184.9316,26.6387 C185.7336,27.8967 186.1346,29.7367 186.1346,32.1607" id="Fill-40" fill="#FFFFFF" sketch:type="MSShapeGroup" mask="url(#mask-4)"></path>
            <path d="M74.7376,51.6172 C74.7376,49.4892 74.4246,47.8672 73.7976,46.7522 C73.1706,45.6362 72.2446,45.0782 71.0176,45.0782 L69.3236,45.0782 L69.3236,58.3222 L70.9356,58.3222 C72.2446,58.3222 73.2046,57.7512 73.8176,56.6072 C74.4306,55.4642 74.7376,53.8012 74.7376,51.6172 M75.8006,51.5552 C75.8006,56.6862 74.2006,59.2522 70.9976,59.2522 L68.3116,59.2522 L68.3116,44.1482 L71.0596,44.1482 C72.6156,44.1482 73.7956,44.7762 74.5976,46.0332 C75.3996,47.2912 75.8006,49.1312 75.8006,51.5552" id="Fill-41" fill="#FFFFFF" sketch:type="MSShapeGroup" mask="url(#mask-4)"></path>
            <path d="M83.473,59.252 L77.998,59.252 L77.998,44.148 L83.473,44.148 L83.473,45.119 L79.01,45.119 L79.01,50.853 L83.226,50.853 L83.226,51.824 L79.01,51.824 L79.01,58.281 L83.473,58.281 L83.473,59.252 Z" id="Fill-42" fill="#FFFFFF" sketch:type="MSShapeGroup" mask="url(#mask-4)"></path>
            <path d="M93.5374,44.8819 C92.4004,44.8819 91.4964,45.4829 90.8254,46.6849 C90.1534,47.8869 89.8174,49.5509 89.8174,51.6799 C89.8174,53.0639 89.9734,54.2699 90.2824,55.2949 C90.5934,56.3209 91.0374,57.1109 91.6154,57.6609 C92.1934,58.2119 92.8654,58.4869 93.6304,58.4869 C94.4154,58.4869 95.0904,58.3469 95.6544,58.0639 L95.6544,58.9939 C95.1174,59.3039 94.4114,59.4589 93.5374,59.4589 C92.5794,59.4589 91.7414,59.1489 91.0214,58.5279 C90.3024,57.9089 89.7454,57.0119 89.3524,55.8379 C88.9604,54.6629 88.7644,53.2709 88.7644,51.6589 C88.7644,49.2479 89.1924,47.3549 90.0504,45.9769 C90.9074,44.5999 92.0764,43.9099 93.5584,43.9099 C94.4804,43.9099 95.2864,44.1239 95.9754,44.5509 L95.5104,45.4399 C94.9324,45.0679 94.2734,44.8819 93.5374,44.8819" id="Fill-43" fill="#FFFFFF" sketch:type="MSShapeGroup" mask="url(#mask-4)"></path>
            <path d="M97.7376,51.6797 C97.7376,53.9247 98.0186,55.6207 98.5796,56.7677 C99.1406,57.9137 99.9596,58.4877 101.0336,58.4877 C102.1146,58.4877 102.9356,57.9187 103.4976,56.7837 C104.0586,55.6467 104.3396,53.9457 104.3396,51.6797 C104.3396,49.4417 104.0636,47.7517 103.5126,46.6127 C102.9626,45.4727 102.1456,44.9027 101.0646,44.9027 C99.9556,44.9027 99.1246,45.4797 98.5696,46.6327 C98.0146,47.7857 97.7376,49.4687 97.7376,51.6797 M105.3926,51.6797 C105.3926,54.1797 105.0196,56.1007 104.2716,57.4447 C103.5246,58.7867 102.4456,59.4587 101.0336,59.4587 C99.6076,59.4587 98.5266,58.7827 97.7896,57.4287 C97.0516,56.0757 96.6836,54.1527 96.6836,51.6587 C96.6836,49.0557 97.0496,47.1167 97.7796,45.8427 C98.5086,44.5687 99.6036,43.9317 101.0646,43.9317 C102.4686,43.9317 103.5426,44.6017 104.2826,45.9407 C105.0226,47.2807 105.3926,49.1937 105.3926,51.6797" id="Fill-44" fill="#FFFFFF" sketch:type="MSShapeGroup" mask="url(#mask-4)"></path>
            <path d="M107.6468,59.252 L107.6468,44.148 L108.6588,44.148 L108.6588,58.281 L112.9158,58.281 L112.9158,59.252 L107.6468,59.252 Z" id="Fill-45" fill="#FFFFFF" sketch:type="MSShapeGroup" mask="url(#mask-4)"></path>
            <path d="M114.6907,51.6797 C114.6907,53.9247 114.9717,55.6207 115.5327,56.7677 C116.0937,57.9137 116.9127,58.4877 117.9867,58.4877 C119.0677,58.4877 119.8887,57.9187 120.4507,56.7837 C121.0117,55.6467 121.2927,53.9457 121.2927,51.6797 C121.2927,49.4417 121.0167,47.7517 120.4657,46.6127 C119.9157,45.4727 119.0987,44.9027 118.0177,44.9027 C116.9087,44.9027 116.0777,45.4797 115.5227,46.6327 C114.9677,47.7857 114.6907,49.4687 114.6907,51.6797 M122.3457,51.6797 C122.3457,54.1797 121.9727,56.1007 121.2247,57.4447 C120.4777,58.7867 119.3987,59.4587 117.9867,59.4587 C116.5607,59.4587 115.4797,58.7827 114.7427,57.4287 C114.0047,56.0757 113.6367,54.1527 113.6367,51.6587 C113.6367,49.0557 114.0027,47.1167 114.7327,45.8427 C115.4617,44.5687 116.5567,43.9317 118.0177,43.9317 C119.4217,43.9317 120.4957,44.6017 121.2357,45.9407 C121.9757,47.2807 122.3457,49.1937 122.3457,51.6797" id="Fill-46" fill="#FFFFFF" sketch:type="MSShapeGroup" mask="url(#mask-4)"></path>
            <path d="M129.5687,59.252 L125.5497,45.502 L125.4667,45.502 C125.5367,46.948 125.5707,47.864 125.5707,48.25 L125.5707,59.252 L124.5997,59.252 L124.5997,44.148 L126.0977,44.148 L129.4857,55.698 C129.7897,56.718 129.9857,57.585 130.0747,58.302 L130.1577,58.302 C130.2257,57.792 130.4397,56.931 130.7977,55.719 L134.1557,44.148 L135.7057,44.148 L135.7057,59.252 L134.6927,59.252 L134.6927,48.332 C134.6927,47.905 134.7267,46.969 134.7967,45.523 L134.7137,45.523 L130.7147,59.252 L129.5687,59.252 Z" id="Fill-47" fill="#FFFFFF" sketch:type="MSShapeGroup" mask="url(#mask-4)"></path>
            <path d="M139.4114,51.8037 L139.4114,58.3227 L141.7364,58.3227 C143.4024,58.3227 144.2364,57.1927 144.2364,54.9337 C144.2364,53.9277 143.9914,53.1557 143.5034,52.6147 C143.0144,52.0747 142.3284,51.8037 141.4464,51.8037 L139.4114,51.8037 Z M139.4114,50.8737 L141.3124,50.8737 C142.2564,50.8737 142.9294,50.6137 143.3324,50.0937 C143.7354,49.5737 143.9364,48.7827 143.9364,47.7227 C143.9364,46.8687 143.7144,46.2147 143.2704,45.7597 C142.8264,45.3057 142.1664,45.0777 141.2924,45.0777 L139.4114,45.0777 L139.4114,50.8737 Z M138.3994,44.1487 L141.2924,44.1487 C142.4764,44.1487 143.3874,44.4507 144.0244,45.0577 C144.6614,45.6627 144.9794,46.5587 144.9794,47.7427 C144.9794,49.7887 144.2324,50.9597 142.7384,51.2557 L142.7384,51.3387 C143.5984,51.5177 144.2394,51.9017 144.6594,52.4907 C145.0794,53.0787 145.2904,53.9007 145.2904,54.9537 C145.2904,56.3047 144.9904,57.3587 144.3904,58.1157 C143.7924,58.8727 142.9514,59.2517 141.8704,59.2517 L138.3994,59.2517 L138.3994,44.1487 Z" id="Fill-48" fill="#FFFFFF" sketch:type="MSShapeGroup" mask="url(#mask-4)"></path>
            <path d="M147.347,44.148 L148.359,44.148 L148.359,59.252 L147.347,59.252 L147.347,44.148 Z" id="Fill-49" fill="#FFFFFF" sketch:type="MSShapeGroup" mask="url(#mask-4)"></path>
            <path d="M155.636,52.7539 L154.303,47.1229 C154.165,46.4899 154.059,45.8909 153.983,45.3259 C153.921,45.9249 153.824,46.5249 153.694,47.1229 L152.403,52.7539 L155.636,52.7539 Z M157.206,59.2519 L155.873,53.7759 L152.206,53.7759 L150.894,59.2519 L149.84,59.2519 L153.477,44.1489 L154.52,44.1489 L158.24,59.2519 L157.206,59.2519 Z" id="Fill-50" fill="#FFFFFF" sketch:type="MSShapeGroup" mask="url(#mask-4)"></path>
            <path d="M37.5094,12.8604 C37.5094,14.9274 35.8344,16.6044 33.7664,16.6044 C31.6964,16.6044 30.0194,14.9274 30.0194,12.8604 C30.0194,10.7924 31.6964,9.1154 33.7664,9.1154 C35.8344,9.1154 37.5094,10.7924 37.5094,12.8604 M1.2984,25.6434 C4.7334,38.3694 11.8924,50.7284 21.5544,59.6904 C32.8084,56.9944 43.7234,51.1084 52.2814,43.1804 C52.0934,43.0224 51.9164,42.8524 51.7544,42.6674 L51.7534,42.6684 C51.7534,42.6684 49.6794,40.5144 46.4494,40.2954 C42.7224,40.0444 37.8714,45.5934 37.8714,45.5934 L37.8714,45.5914 C35.0234,48.9844 30.7514,51.1414 25.9744,51.1414 C17.3994,51.1414 10.4474,44.1894 10.4474,35.6144 C10.4474,27.0394 17.3994,20.0874 25.9744,20.0874 C27.8164,20.0874 29.5824,20.4074 31.2214,20.9964 C35.0464,22.3694 38.1734,25.2014 39.9374,28.8204 L39.9384,28.8164 C39.9384,28.8164 43.3064,35.7944 46.9444,36.4634 C50.0994,37.0444 52.7544,35.4324 52.7544,35.4324 L52.7544,35.4334 C53.1214,35.1934 53.5254,35.0044 53.9564,34.8714 C50.4884,23.9534 44.0944,13.6454 36.0674,5.6124 C23.1514,8.9434 10.6694,16.1504 1.2984,25.6434" id="Fill-51" fill="#FFFFFF" sketch:type="MSShapeGroup" mask="url(#mask-4)"></path>
            <path d="M51.0368,21.9234 C51.4788,23.5584 51.8688,25.2104 52.2028,26.8744 C53.1718,29.0224 54.0328,31.2114 54.7788,33.4294 C55.4798,31.8284 56.1158,30.2064 56.6798,28.5694 C54.9638,26.2464 53.0728,24.0264 51.0368,21.9234" id="Fill-52" fill="#FFFFFF" sketch:type="MSShapeGroup" mask="url(#mask-4)"></path>
            <path d="M29.2625,6.4455 C27.5985,5.6655 25.9145,4.9495 24.2155,4.3055 C21.8745,6.1455 19.6325,8.1535 17.5055,10.2995 C19.3875,9.7725 21.2915,9.3115 23.2115,8.9235 C25.1985,8.0095 27.2185,7.1825 29.2625,6.4455" id="Fill-53" fill="#FFFFFF" sketch:type="MSShapeGroup" mask="url(#mask-4)"></path>
            <path d="M28.0924,59.0538 C29.7594,59.7748 31.4484,60.4258 33.1554,60.9998 C35.6064,59.1408 37.9434,57.0858 40.1454,54.8708 C38.4884,55.3698 36.8114,55.8108 35.1194,56.1898 C32.8234,57.2728 30.4744,58.2298 28.0924,59.0538" id="Fill-54" fill="#FFFFFF" sketch:type="MSShapeGroup" mask="url(#mask-4)"></path>
            <path d="M2.1681,32.3521 C1.3751,34.0641 0.6501,35.7991 0.0001,37.5501 C1.9681,39.9961 4.1211,42.3371 6.4271,44.5471 C5.8371,42.6481 5.3221,40.7211 4.8851,38.7761 C3.8781,36.6711 2.9721,34.5241 2.1681,32.3521" id="Fill-55" fill="#FFFFFF" sketch:type="MSShapeGroup" mask="url(#mask-4)"></path>
            <path d="M12.7183,56.3981 C14.0953,56.5371 15.4823,56.6341 16.8763,56.6851 C13.2783,52.7381 10.1103,48.3251 7.4393,43.6321 C8.7813,48.0841 10.5433,52.3831 12.7183,56.3981" id="Fill-56" fill="#FFFFFF" sketch:type="MSShapeGroup" mask="url(#mask-4)"></path>
            <path d="M52.0359,48.7012 C52.1839,47.4062 52.2919,46.1032 52.3599,44.7932 C48.6299,48.1422 44.4889,51.1132 40.0869,53.6212 C44.2459,52.3522 48.2659,50.7062 52.0359,48.7012" id="Fill-57" fill="#FFFFFF" sketch:type="MSShapeGroup" mask="url(#mask-4)"></path>
            <path d="M4.4397,16.6416 C4.3297,18.1536 4.2697,19.6776 4.2557,21.2086 C8.5777,17.4156 13.3927,14.0756 18.5017,11.2986 C13.6127,12.6216 8.8757,14.4146 4.4397,16.6416" id="Fill-58" fill="#FFFFFF" sketch:type="MSShapeGroup" mask="url(#mask-4)"></path>
            <path d="M44.8178,8.8198 C43.3928,8.7008 41.9588,8.6238 40.5178,8.5918 C44.0648,12.6908 47.2068,17.2318 49.8198,22.0498 C48.5638,17.4558 46.8818,13.0018 44.8178,8.8198" id="Fill-59" fill="#FFFFFF" sketch:type="MSShapeGroup" mask="url(#mask-4)"></path>
            <path d="M18.2531,36.3303 C17.8581,32.0653 20.9941,28.2853 25.2591,27.8893 C29.5241,27.4943 33.3031,30.6333 33.6981,34.8983 C34.0941,39.1613 30.9561,42.9383 26.6911,43.3343 C22.4271,43.7293 18.6481,40.5933 18.2531,36.3303" id="Fill-60" fill="#FFFFFF" sketch:type="MSShapeGroup" mask="url(#mask-4)"></path>
            <path d="M52.9817,39.7054 C52.8587,38.3774 53.8357,37.2024 55.1637,37.0794 C56.4907,36.9564 57.6667,37.9314 57.7897,39.2594 C57.9127,40.5894 56.9367,41.7644 55.6097,41.8884 C54.2817,42.0114 53.1047,41.0344 52.9817,39.7054" id="Fill-61" fill="#FFFFFF" sketch:type="MSShapeGroup" mask="url(#mask-4)"></path>
            <path d="M31.8918,12.8604 C31.8918,11.8274 32.7308,10.9864 33.7668,10.9864 C34.7988,10.9864 35.6378,11.8274 35.6378,12.8604 C35.6378,13.8934 34.7988,14.7334 33.7668,14.7334 C32.7308,14.7334 31.8918,13.8934 31.8918,12.8604" id="Fill-62" fill="#FFFFFF" sketch:type="MSShapeGroup" mask="url(#mask-4)"></path>
        </g>
    </g>
</svg>