<?xml version="1.0" encoding="UTF-8" standalone="no"?>
<svg width="20px" height="20px" viewBox="0 0 20 20" version="1.1" xmlns="http://www.w3.org/2000/svg" xmlns:xlink="http://www.w3.org/1999/xlink" xmlns:sketch="http://www.bohemiancoding.com/sketch/ns">
    <!-- Generator: Sketch 3.4 (15575) - http://www.bohemiancoding.com/sketch -->
    <title>view-list</title>
    <desc>Created with Sketch.</desc>
    <defs></defs>
    <g id="Page-1" stroke="none" stroke-width="1" fill="none" fill-rule="evenodd" sketch:type="MSPage">
        <path d="M5.892,4.348 L19.999,4.348 L19.999,0 L5.892,0 L5.892,4.348 Z M0,4.348 L3.455,4.348 L3.455,0 L0,0 L0,4.348 Z M5.892,12.174 L19.999,12.174 L19.999,7.827 L5.892,7.827 L5.892,12.174 Z M0,12.174 L3.455,12.174 L3.455,7.827 L0,7.827 L0,12.174 Z M5.892,20 L19.999,20 L19.999,15.653 L5.892,15.653 L5.892,20 Z M0,20 L3.455,20 L3.455,15.653 L0,15.653 L0,20 Z" id="view-list" fill="#EC5244" sketch:type="MSShapeGroup"></path>
    </g>
</svg>