<?xml version="1.0" encoding="UTF-8" standalone="no"?>
<svg width="20px" height="20px" viewBox="0 0 20 20" version="1.1" xmlns="http://www.w3.org/2000/svg" xmlns:xlink="http://www.w3.org/1999/xlink" xmlns:sketch="http://www.bohemiancoding.com/sketch/ns">
    <!-- Generator: Sketch 3.4 (15575) - http://www.bohemiancoding.com/sketch -->
    <title>view-card-active</title>
    <desc>Created with Sketch.</desc>
    <defs></defs>
    <g id="Page-1" stroke="none" stroke-width="1" fill="none" fill-rule="evenodd" sketch:type="MSPage">
        <path d="M15.584,4.348 L19.999,4.348 L19.999,0 L15.584,0 L15.584,4.348 Z M7.792,4.348 L12.207,4.348 L12.207,0 L7.792,0 L7.792,4.348 Z M0,4.348 L4.415,4.348 L4.415,0 L0,0 L0,4.348 Z M15.584,12.174 L19.999,12.174 L19.999,7.827 L15.584,7.827 L15.584,12.174 Z M7.792,12.174 L12.207,12.174 L12.207,7.827 L7.792,7.827 L7.792,12.174 Z M0,12.174 L4.415,12.174 L4.415,7.827 L0,7.827 L0,12.174 Z M15.584,20 L19.999,20 L19.999,15.652 L15.584,15.652 L15.584,20 Z M7.792,20 L12.207,20 L12.207,15.652 L7.792,15.652 L7.792,20 Z M0,20 L4.415,20 L4.415,15.652 L0,15.652 L0,20 Z" id="view-card-active" fill="#EC5244" sketch:type="MSShapeGroup"></path>
    </g>
</svg>