<?xml version="1.0" encoding="UTF-8" standalone="no"?>
<svg width="50px" height="20px" viewBox="0 0 50 20" version="1.1" xmlns="http://www.w3.org/2000/svg" xmlns:xlink="http://www.w3.org/1999/xlink" xmlns:sketch="http://www.bohemiancoding.com/sketch/ns">
    <!-- Generator: Sketch 3.4 (15575) - http://www.bohemiancoding.com/sketch -->
    <title>view-card-ico</title>
    <desc>Created with Sketch.</desc>
    <defs></defs>
    <g id="Page-1" stroke="none" stroke-width="1" fill="none" fill-rule="evenodd" sketch:type="MSPage">
        <g id="view-card-ico" sketch:type="MSLayerGroup">
            <path d="M45.584,4.348 L49.999,4.348 L49.999,0 L45.584,0 L45.584,4.348 Z M37.792,4.348 L42.207,4.348 L42.207,0 L37.792,0 L37.792,4.348 Z M30,4.348 L34.415,4.348 L34.415,0 L30,0 L30,4.348 Z M45.584,12.174 L49.999,12.174 L49.999,7.827 L45.584,7.827 L45.584,12.174 Z M37.792,12.174 L42.207,12.174 L42.207,7.827 L37.792,7.827 L37.792,12.174 Z M30,12.174 L34.415,12.174 L34.415,7.827 L30,7.827 L30,12.174 Z M45.584,20 L49.999,20 L49.999,15.652 L45.584,15.652 L45.584,20 Z M37.792,20 L42.207,20 L42.207,15.652 L37.792,15.652 L37.792,20 Z M30,20 L34.415,20 L34.415,15.652 L30,15.652 L30,20 Z" id="view-card-active" fill="#EC5244" sketch:type="MSShapeGroup"></path>
            <path d="M5.892,4.348 L19.999,4.348 L19.999,0 L5.892,0 L5.892,4.348 Z M0,4.348 L3.455,4.348 L3.455,0 L0,0 L0,4.348 Z M5.892,12.174 L19.999,12.174 L19.999,7.827 L5.892,7.827 L5.892,12.174 Z M0,12.174 L3.455,12.174 L3.455,7.827 L0,7.827 L0,12.174 Z M5.892,20 L19.999,20 L19.999,15.653 L5.892,15.653 L5.892,20 Z M0,20 L3.455,20 L3.455,15.653 L0,15.653 L0,20 Z" id="view-list-active" fill="#5D5D5D" sketch:type="MSShapeGroup"></path>
        </g>
    </g>
</svg>